<svg xmlns="http://www.w3.org/2000/svg" class="h-8" viewBox="0 0 2338.16 2474.04"><defs><style>.b{fill:#1d1d1b}.f{fill:#010101}</style></defs><path d="M1471 981.92c-290.66 28.7-528.9 235.74-603.8 510.2 290.63-28.7 528.88-235.75 603.8-510.2Z" style="fill:#f39109"/><path d="M1540.39 978.49q-35.15 0-69.41 3.43a698.15 698.15 0 0 1-228.1 353.22l.08.14a450.72 450.72 0 0 1 297.43-111.5c249.9 0 452.48 202.59 452.48 452.49s-202.58 452.48-452.48 452.48q-20.52 0-40.59-1.8v245.91q20.15 1.16 40.59 1.18c385.37 0 697.77-312.41 697.77-697.77s-312.4-697.78-697.77-697.78Z" class="b"/><path d="M1241.81 1336a694.58 694.58 0 0 1-374.63 156.09L847.3 1595l242.2 43.09c10-120.09 66.94-226.85 152.39-301.92Z" style="fill:#319ed9"/><path d="M1248.66 835.91c-10.13 121.4-68.19 229.18-155.2 304.36l.07.08A694.61 694.61 0 0 1 1471 981.92 694.88 694.88 0 0 0 1490.86 879Z" style="fill:#e52328"/><path d="M867.18 1492.12A698 698 0 0 1 1089.25 1144a450.65 450.65 0 0 1-291.44 106.35c-249.9 0-452.48-202.58-452.48-452.48s202.54-452.58 452.44-452.58q20.52 0 40.59 1.79v-245.9Q818.21 100 797.77 100C412.4 100 100 412.4 100 797.77s312.4 697.77 697.77 697.77q35.15 0 69.41-3.42Z" style="fill:#b92d88"/><path d="M899.32 1887.88s10.8 10.95 25.94 10.95c9.51 0 17.58-5.33 17.58-15 0-22-49.29-17.3-49.29-48.57 0-15.86 13.69-28.39 32.86-28.39 18.88 0 28.82 10.23 28.82 10.23l-6.48 11.82s-9.37-8.8-22.34-8.8c-10.81 0-18.45 6.78-18.45 14.85 0 21 49.29 15.42 49.29 48.42 0 15.71-12.1 28.68-32.28 28.68-21.62 0-33.72-13.4-33.72-13.4ZM977.43 1849.69h-9.51v-11.24h9.94v-21h13.55v21H1009v11.24h-17.59v32.43c0 14.55 10.23 16.43 15.56 16.43a16.79 16.79 0 0 0 3.32-.29v12.39a38.14 38.14 0 0 1-4.9.29c-9.37 0-28-2.88-28-27.24ZM1025 1837.44h14V1881c0 10.09 2 18.16 13.69 18.16 14.84 0 23.63-13.11 23.63-27.52v-34.16h14v72.92h-13.55v-9.65a47.31 47.31 0 0 1 .29-5.33h-.29c-3 7.2-12.53 16.71-26.8 16.71-16.43 0-24.93-8.64-24.93-28ZM1140.42 1835.71c16.87 0 22.49 11.53 22.49 11.53h.28a42.43 42.43 0 0 1-.28-4.9v-33.72h14v101.74h-13.26v-6.91c0-2.89.14-4.9.14-4.9h-.29s-5.91 13.54-23.92 13.54c-19.74 0-32.14-15.56-32.14-38.19-.02-23.2 13.67-38.19 32.98-38.19Zm1.88 64.28c10.81 0 21-7.64 21-26.23 0-13-6.77-25.94-20.61-25.94-11.53 0-21 9.51-21 26.08 0 15.85 8.5 26.1 20.61 26.1ZM1230.21 1835.71c20.61 0 31.56 15.28 31.56 34.16 0 1.87-.43 6.05-.43 6.05h-53.18c.72 16 12.11 24.07 25.08 24.07 12.54 0 21.62-8.51 21.62-8.51l5.76 10.24a43.43 43.43 0 0 1-28.25 10.37c-22.91 0-38.62-16.57-38.62-38.19 0-23.2 15.71-38.19 36.46-38.19Zm17.29 29.69c-.43-12.54-8.21-18.59-17.58-18.59-10.66 0-19.31 6.63-21.33 18.59ZM1278.78 1837.44h13.54v9.66a52.62 52.62 0 0 1-.28 5.33h.28c2.89-6.34 11.53-16.72 27.39-16.72 17.15 0 25.07 9.37 25.07 28v46.69h-14v-43.52c0-10.23-2.16-18.3-13.83-18.3-11.1 0-20 7.35-23.06 17.87a34.65 34.65 0 0 0-1.15 9.8v34.15h-14ZM1368.71 1849.69h-9.51v-11.24h9.94v-21h13.55v21h17.58v11.24h-17.58v32.43c0 14.55 10.23 16.43 15.56 16.43a16.79 16.79 0 0 0 3.32-.29v12.39a38.14 38.14 0 0 1-4.9.29c-9.37 0-28-2.88-28-27.24ZM943.85 1979.83c24.5 0 37 13.4 37 13.4l-7.06 10.67a46.43 46.43 0 0 0-29.41-11.1c-22.77 0-37.61 17.29-37.61 38.91s15.13 40.21 37.76 40.21c19.17 0 31.42-13.26 31.42-13.26l7.64 10.23s-14 16.15-39.49 16.15c-30.56 0-52-23.35-52-53.18.01-29.55 22.2-52.03 51.75-52.03ZM1034.21 2008.65c21.76 0 39.34 16 39.34 38S1056 2085 1034.21 2085s-39.35-16.15-39.35-38.34 17.59-38.01 39.35-38.01Zm0 64.28c13.84 0 25.08-10.95 25.08-26.23s-11.24-25.94-25.08-25.94-25.08 10.81-25.08 25.94c0 15.3 11.39 26.23 25.08 26.23ZM1089.12 2010.38h14v43.53c0 10.09 2 18.16 13.69 18.16 14.84 0 23.63-13.12 23.63-27.53v-34.16h14v72.93h-13.54v-9.66a49 49 0 0 1 .28-5.33h-.28c-3 7.2-12.54 16.72-26.81 16.72-16.43 0-24.93-8.65-24.93-28ZM1176.31 2010.38h13.55v9.62a50.83 50.83 0 0 1-.29 5.33h.29c2.88-6.34 11.53-16.72 27.38-16.72 17.15 0 25.08 9.37 25.08 28v46.7h-14v-43.53c0-10.23-2.17-18.3-13.84-18.3-11.1 0-20 7.35-23.06 17.87a34.7 34.7 0 0 0-1.15 9.8v34.16h-14ZM1297.08 2008.65c18.3 0 27.38 10.67 27.38 10.67l-6.63 9.8a29.52 29.52 0 0 0-20.17-8.36c-14.7 0-25.37 11-25.37 25.94s10.67 26.23 25.8 26.23c13.55 0 22.48-9.8 22.48-9.8l5.62 10.23s-10.09 11.64-29.11 11.64c-22.91 0-39.06-16.29-39.06-38.19-.02-21.58 16.15-38.16 39.06-38.16ZM1341.9 1981.56h14.1v14.27h-14.1Zm.15 28.82h14v72.93h-14ZM1377.07 1981.56h14V2061c0 8.79 3.45 10.38 7.78 10.38a21.55 21.55 0 0 0 2.45-.15v12.4a40.36 40.36 0 0 1-4.61.28c-7.93 0-19.6-2.16-19.6-20.46Z" class="b"/><path d="M531.66 1918.78a65.81 65.81 0 0 1-18.94 12.36 64 64 0 0 1-50.06 0 64.87 64.87 0 0 1-20.44-13.85 66.3 66.3 0 0 1-13.85-20.44 64.19 64.19 0 0 1 0-50.15 64.75 64.75 0 0 1 13.85-20.54 66.27 66.27 0 0 1 20.44-13.84 64 64 0 0 1 50.06 0 66.22 66.22 0 0 1 19 12.45l-15 17.74-.34-.33a42.39 42.39 0 0 0-12.89-9.23 37.8 37.8 0 0 0-31.64 0 42.66 42.66 0 0 0-21.59 22.74 41.78 41.78 0 0 0 0 32.17 46.14 46.14 0 0 0 8.71 13.51 42.1 42.1 0 0 0 12.88 9.33 37.9 37.9 0 0 0 31.64 0 42.63 42.63 0 0 0 12.89-9.33 2.15 2.15 0 0 1 .34-.33ZM479.06 2083.48h-49v-124.21h49q26.61 0 43.71 15.63a52.89 52.89 0 0 1 13.8 20.1 77.51 77.51 0 0 1 0 52.94 53.07 53.07 0 0 1-13.8 20.1 55.26 55.26 0 0 1-19.43 11.54 72.4 72.4 0 0 1-24.28 3.9Zm-25.2-21.06h25.29a61.42 61.42 0 0 0 13.42-1.54 29.76 29.76 0 0 0 12.31-6 33.9 33.9 0 0 0 9.09-12.46c2.35-5.34 3.55-12.26 3.55-20.87s-1.2-15.58-3.55-21a30.31 30.31 0 0 0-21.59-18.42 60.78 60.78 0 0 0-13.23-1.54h-25.29ZM608.6 1936.19a61.72 61.72 0 0 1-25-5.1 64.77 64.77 0 0 1-20.43-13.85 66.12 66.12 0 0 1-13.85-20.44 64.19 64.19 0 0 1 0-50.15 64.54 64.54 0 0 1 13.85-20.53 66.08 66.08 0 0 1 20.43-13.85 64 64 0 0 1 50.06 0 65.27 65.27 0 0 1 20.44 13.85 66 66 0 0 1 13.9 20.53 64.19 64.19 0 0 1 0 50.15 65.27 65.27 0 0 1-13.85 20.44 66.12 66.12 0 0 1-20.44 13.85 61.87 61.87 0 0 1-25.11 5.1Zm.1-106.76a36.69 36.69 0 0 0-15.82 3.47 42.56 42.56 0 0 0-21.59 22.74 41.67 41.67 0 0 0 0 32.17 46.11 46.11 0 0 0 8.7 13.51 41.86 41.86 0 0 0 12.89 9.33 37.8 37.8 0 0 0 31.64 0 42.7 42.7 0 0 0 12.89-9.33 44.69 44.69 0 0 0 8.7-13.51 41.78 41.78 0 0 0 0-32.17 44.47 44.47 0 0 0-8.7-13.51 42.81 42.81 0 0 0-12.89-9.23 37.49 37.49 0 0 0-15.82-3.47ZM773.35 1957.63l-62.66 73.39-62.46-73.39v36.21l62.46 73.53 38.85-46.69v62.8h23.81v-125.85zM671.64 2083.48l-106.85-125.85v35.97l58.43 69.15h-58.43v20.73h106.85zM823.9 1796.83h21v297.03h-21z" class="f"/></svg>